<svg width="491" height="447" viewBox="0 0 491 447" fill="none" xmlns="http://www.w3.org/2000/svg">
<path d="M491 143.1L427.1 0.600006H63.9L0 143.1L245.5 446.4L491 143.1ZM182.9 165.1H308.2L245.5 349L182.9 165.1ZM302.8 293.3L346.5 165.1H406.6L302.8 293.3ZM402 71.3L420.8 113.3H373.6L402 71.3ZM371 52.4L333.2 108.4L289 52.4H371ZM290.8 113.3H200.1L245.5 55.8L290.8 113.3ZM202 52.4L157.8 108.4L120 52.4C120 52.4 202 52.4 202 52.4ZM89 71.3L117.3 113.3H70.2L89 71.3ZM84.4 165.1H144.5L188.2 293.3L84.4 165.1Z" fill="#B7B7B7"/>
</svg>
